<mxfile host="app.diagrams.net" modified="2022-03-17T13:28:28.131Z" agent="5.0 (Windows NT 10.0; Win64; x64) AppleWebKit/537.36 (KHTML, like Gecko) Chrome/99.0.4844.51 Safari/537.36" etag="k2Pl_fvrsMcU_RNF9s0f" version="17.1.3" type="github">
  <diagram id="C5RBs43oDa-KdzZeNtuy" name="Page-1">
    <mxGraphModel dx="1304" dy="567" grid="1" gridSize="10" guides="1" tooltips="1" connect="1" arrows="1" fold="1" page="1" pageScale="1" pageWidth="827" pageHeight="1169" math="0" shadow="0">
      <root>
        <mxCell id="WIyWlLk6GJQsqaUBKTNV-0" />
        <mxCell id="WIyWlLk6GJQsqaUBKTNV-1" parent="WIyWlLk6GJQsqaUBKTNV-0" />
        <mxCell id="CHdmzVtjz8ZZ7qVC3EN9-0" value="FIM" style="rounded=1;whiteSpace=wrap;html=1;" vertex="1" parent="WIyWlLk6GJQsqaUBKTNV-1">
          <mxGeometry x="180" width="120" height="60" as="geometry" />
        </mxCell>
        <mxCell id="CHdmzVtjz8ZZ7qVC3EN9-1" value="INICIO" style="rounded=1;whiteSpace=wrap;html=1;" vertex="1" parent="WIyWlLk6GJQsqaUBKTNV-1">
          <mxGeometry x="40" width="120" height="60" as="geometry" />
        </mxCell>
        <mxCell id="CHdmzVtjz8ZZ7qVC3EN9-2" value="PROCESSAMENTO" style="rounded=0;whiteSpace=wrap;html=1;" vertex="1" parent="WIyWlLk6GJQsqaUBKTNV-1">
          <mxGeometry x="40" y="180" width="120" height="60" as="geometry" />
        </mxCell>
        <mxCell id="CHdmzVtjz8ZZ7qVC3EN9-3" value="ENTRADA" style="shape=parallelogram;perimeter=parallelogramPerimeter;whiteSpace=wrap;html=1;fixedSize=1;" vertex="1" parent="WIyWlLk6GJQsqaUBKTNV-1">
          <mxGeometry x="40" y="100" width="120" height="60" as="geometry" />
        </mxCell>
        <mxCell id="CHdmzVtjz8ZZ7qVC3EN9-5" value="SAIDA" style="shape=document;whiteSpace=wrap;html=1;boundedLbl=1;" vertex="1" parent="WIyWlLk6GJQsqaUBKTNV-1">
          <mxGeometry x="180" y="90" width="120" height="80" as="geometry" />
        </mxCell>
        <mxCell id="CHdmzVtjz8ZZ7qVC3EN9-6" value="DECISÃO" style="rhombus;whiteSpace=wrap;html=1;" vertex="1" parent="WIyWlLk6GJQsqaUBKTNV-1">
          <mxGeometry x="200" y="170" width="80" height="80" as="geometry" />
        </mxCell>
        <mxCell id="CHdmzVtjz8ZZ7qVC3EN9-43" value="" style="edgeStyle=none;rounded=0;orthogonalLoop=1;jettySize=auto;html=1;" edge="1" parent="WIyWlLk6GJQsqaUBKTNV-1" source="CHdmzVtjz8ZZ7qVC3EN9-9">
          <mxGeometry relative="1" as="geometry">
            <mxPoint x="540" y="260" as="targetPoint" />
          </mxGeometry>
        </mxCell>
        <mxCell id="CHdmzVtjz8ZZ7qVC3EN9-9" value="INICIO" style="rounded=1;whiteSpace=wrap;html=1;" vertex="1" parent="WIyWlLk6GJQsqaUBKTNV-1">
          <mxGeometry x="480" y="120" width="120" height="60" as="geometry" />
        </mxCell>
        <mxCell id="CHdmzVtjz8ZZ7qVC3EN9-46" value="" style="edgeStyle=none;rounded=0;orthogonalLoop=1;jettySize=auto;html=1;" edge="1" parent="WIyWlLk6GJQsqaUBKTNV-1" source="CHdmzVtjz8ZZ7qVC3EN9-44" target="CHdmzVtjz8ZZ7qVC3EN9-45">
          <mxGeometry relative="1" as="geometry" />
        </mxCell>
        <mxCell id="CHdmzVtjz8ZZ7qVC3EN9-44" value="A,B" style="shape=parallelogram;perimeter=parallelogramPerimeter;whiteSpace=wrap;html=1;fixedSize=1;" vertex="1" parent="WIyWlLk6GJQsqaUBKTNV-1">
          <mxGeometry x="480" y="260" width="120" height="60" as="geometry" />
        </mxCell>
        <mxCell id="CHdmzVtjz8ZZ7qVC3EN9-51" value="" style="edgeStyle=none;rounded=0;orthogonalLoop=1;jettySize=auto;html=1;" edge="1" parent="WIyWlLk6GJQsqaUBKTNV-1" source="CHdmzVtjz8ZZ7qVC3EN9-45" target="CHdmzVtjz8ZZ7qVC3EN9-50">
          <mxGeometry relative="1" as="geometry" />
        </mxCell>
        <mxCell id="CHdmzVtjz8ZZ7qVC3EN9-73" value="" style="edgeStyle=none;rounded=0;orthogonalLoop=1;jettySize=auto;html=1;" edge="1" parent="WIyWlLk6GJQsqaUBKTNV-1" source="CHdmzVtjz8ZZ7qVC3EN9-45" target="CHdmzVtjz8ZZ7qVC3EN9-72">
          <mxGeometry relative="1" as="geometry" />
        </mxCell>
        <mxCell id="CHdmzVtjz8ZZ7qVC3EN9-45" value="são números?" style="rhombus;whiteSpace=wrap;html=1;" vertex="1" parent="WIyWlLk6GJQsqaUBKTNV-1">
          <mxGeometry x="500" y="390" width="80" height="80" as="geometry" />
        </mxCell>
        <mxCell id="CHdmzVtjz8ZZ7qVC3EN9-56" value="" style="edgeStyle=none;rounded=0;orthogonalLoop=1;jettySize=auto;html=1;" edge="1" parent="WIyWlLk6GJQsqaUBKTNV-1" source="CHdmzVtjz8ZZ7qVC3EN9-50" target="CHdmzVtjz8ZZ7qVC3EN9-55">
          <mxGeometry relative="1" as="geometry" />
        </mxCell>
        <mxCell id="CHdmzVtjz8ZZ7qVC3EN9-65" value="" style="edgeStyle=none;rounded=0;orthogonalLoop=1;jettySize=auto;html=1;" edge="1" parent="WIyWlLk6GJQsqaUBKTNV-1" source="CHdmzVtjz8ZZ7qVC3EN9-50" target="CHdmzVtjz8ZZ7qVC3EN9-64">
          <mxGeometry relative="1" as="geometry" />
        </mxCell>
        <mxCell id="CHdmzVtjz8ZZ7qVC3EN9-50" value="B&amp;gt;A" style="rhombus;whiteSpace=wrap;html=1;" vertex="1" parent="WIyWlLk6GJQsqaUBKTNV-1">
          <mxGeometry x="660" y="390" width="80" height="80" as="geometry" />
        </mxCell>
        <mxCell id="CHdmzVtjz8ZZ7qVC3EN9-52" value="Verdadeiro" style="text;html=1;align=center;verticalAlign=middle;resizable=0;points=[];autosize=1;strokeColor=none;fillColor=none;" vertex="1" parent="WIyWlLk6GJQsqaUBKTNV-1">
          <mxGeometry x="580" y="410" width="70" height="20" as="geometry" />
        </mxCell>
        <mxCell id="CHdmzVtjz8ZZ7qVC3EN9-89" style="edgeStyle=none;rounded=0;orthogonalLoop=1;jettySize=auto;html=1;" edge="1" parent="WIyWlLk6GJQsqaUBKTNV-1" source="CHdmzVtjz8ZZ7qVC3EN9-55">
          <mxGeometry relative="1" as="geometry">
            <mxPoint x="610" y="760" as="targetPoint" />
            <Array as="points">
              <mxPoint x="700" y="670" />
              <mxPoint x="700" y="760" />
            </Array>
          </mxGeometry>
        </mxCell>
        <mxCell id="CHdmzVtjz8ZZ7qVC3EN9-55" value="resultado (B)" style="shape=document;whiteSpace=wrap;html=1;boundedLbl=1;" vertex="1" parent="WIyWlLk6GJQsqaUBKTNV-1">
          <mxGeometry x="640" y="550" width="120" height="80" as="geometry" />
        </mxCell>
        <mxCell id="CHdmzVtjz8ZZ7qVC3EN9-57" value="Verdadeiro" style="text;html=1;align=center;verticalAlign=middle;resizable=0;points=[];autosize=1;strokeColor=none;fillColor=none;" vertex="1" parent="WIyWlLk6GJQsqaUBKTNV-1">
          <mxGeometry x="700" y="490" width="70" height="20" as="geometry" />
        </mxCell>
        <mxCell id="CHdmzVtjz8ZZ7qVC3EN9-68" value="" style="edgeStyle=none;rounded=0;orthogonalLoop=1;jettySize=auto;html=1;" edge="1" parent="WIyWlLk6GJQsqaUBKTNV-1" source="CHdmzVtjz8ZZ7qVC3EN9-64" target="CHdmzVtjz8ZZ7qVC3EN9-67">
          <mxGeometry relative="1" as="geometry" />
        </mxCell>
        <mxCell id="CHdmzVtjz8ZZ7qVC3EN9-71" value="" style="edgeStyle=none;rounded=0;orthogonalLoop=1;jettySize=auto;html=1;" edge="1" parent="WIyWlLk6GJQsqaUBKTNV-1" source="CHdmzVtjz8ZZ7qVC3EN9-64" target="CHdmzVtjz8ZZ7qVC3EN9-70">
          <mxGeometry relative="1" as="geometry" />
        </mxCell>
        <mxCell id="CHdmzVtjz8ZZ7qVC3EN9-64" value="A&amp;gt;B" style="rhombus;whiteSpace=wrap;html=1;" vertex="1" parent="WIyWlLk6GJQsqaUBKTNV-1">
          <mxGeometry x="820" y="390" width="80" height="80" as="geometry" />
        </mxCell>
        <mxCell id="CHdmzVtjz8ZZ7qVC3EN9-66" value="Falso" style="text;html=1;align=center;verticalAlign=middle;resizable=0;points=[];autosize=1;strokeColor=none;fillColor=none;" vertex="1" parent="WIyWlLk6GJQsqaUBKTNV-1">
          <mxGeometry x="750" y="410" width="40" height="20" as="geometry" />
        </mxCell>
        <mxCell id="CHdmzVtjz8ZZ7qVC3EN9-90" style="edgeStyle=none;rounded=0;orthogonalLoop=1;jettySize=auto;html=1;" edge="1" parent="WIyWlLk6GJQsqaUBKTNV-1" source="CHdmzVtjz8ZZ7qVC3EN9-67">
          <mxGeometry relative="1" as="geometry">
            <mxPoint x="610" y="770" as="targetPoint" />
            <Array as="points">
              <mxPoint x="860" y="770" />
            </Array>
          </mxGeometry>
        </mxCell>
        <mxCell id="CHdmzVtjz8ZZ7qVC3EN9-67" value="resultado (A)" style="shape=document;whiteSpace=wrap;html=1;boundedLbl=1;" vertex="1" parent="WIyWlLk6GJQsqaUBKTNV-1">
          <mxGeometry x="800" y="550" width="120" height="80" as="geometry" />
        </mxCell>
        <mxCell id="CHdmzVtjz8ZZ7qVC3EN9-69" value="Verdadeiro" style="text;html=1;align=center;verticalAlign=middle;resizable=0;points=[];autosize=1;strokeColor=none;fillColor=none;" vertex="1" parent="WIyWlLk6GJQsqaUBKTNV-1">
          <mxGeometry x="870" y="490" width="70" height="20" as="geometry" />
        </mxCell>
        <mxCell id="CHdmzVtjz8ZZ7qVC3EN9-91" style="edgeStyle=none;rounded=0;orthogonalLoop=1;jettySize=auto;html=1;" edge="1" parent="WIyWlLk6GJQsqaUBKTNV-1" source="CHdmzVtjz8ZZ7qVC3EN9-70">
          <mxGeometry relative="1" as="geometry">
            <mxPoint x="610" y="780" as="targetPoint" />
            <Array as="points">
              <mxPoint x="1020" y="780" />
            </Array>
          </mxGeometry>
        </mxCell>
        <mxCell id="CHdmzVtjz8ZZ7qVC3EN9-70" value="os números são iguais" style="shape=document;whiteSpace=wrap;html=1;boundedLbl=1;" vertex="1" parent="WIyWlLk6GJQsqaUBKTNV-1">
          <mxGeometry x="960" y="390" width="120" height="80" as="geometry" />
        </mxCell>
        <mxCell id="CHdmzVtjz8ZZ7qVC3EN9-75" value="" style="edgeStyle=none;rounded=0;orthogonalLoop=1;jettySize=auto;html=1;" edge="1" parent="WIyWlLk6GJQsqaUBKTNV-1" source="CHdmzVtjz8ZZ7qVC3EN9-72" target="CHdmzVtjz8ZZ7qVC3EN9-74">
          <mxGeometry relative="1" as="geometry" />
        </mxCell>
        <mxCell id="CHdmzVtjz8ZZ7qVC3EN9-72" value="Erro" style="shape=document;whiteSpace=wrap;html=1;boundedLbl=1;" vertex="1" parent="WIyWlLk6GJQsqaUBKTNV-1">
          <mxGeometry x="480" y="550" width="120" height="80" as="geometry" />
        </mxCell>
        <mxCell id="CHdmzVtjz8ZZ7qVC3EN9-74" value="FIM" style="whiteSpace=wrap;html=1;" vertex="1" parent="WIyWlLk6GJQsqaUBKTNV-1">
          <mxGeometry x="480" y="720" width="120" height="60" as="geometry" />
        </mxCell>
        <mxCell id="CHdmzVtjz8ZZ7qVC3EN9-92" value="Falso" style="text;html=1;align=center;verticalAlign=middle;resizable=0;points=[];autosize=1;strokeColor=none;fillColor=none;" vertex="1" parent="WIyWlLk6GJQsqaUBKTNV-1">
          <mxGeometry x="900" y="410" width="40" height="20" as="geometry" />
        </mxCell>
        <mxCell id="CHdmzVtjz8ZZ7qVC3EN9-93" value="Falso" style="text;html=1;align=center;verticalAlign=middle;resizable=0;points=[];autosize=1;strokeColor=none;fillColor=none;" vertex="1" parent="WIyWlLk6GJQsqaUBKTNV-1">
          <mxGeometry x="540" y="490" width="40" height="20" as="geometry" />
        </mxCell>
      </root>
    </mxGraphModel>
  </diagram>
</mxfile>
